<?xml version="1.0" encoding="UTF-8" standalone="no"?>
<svg width="14px" height="26px" viewBox="0 0 14 26" version="1.1" xmlns="http://www.w3.org/2000/svg" xmlns:xlink="http://www.w3.org/1999/xlink" xmlns:sketch="http://www.bohemiancoding.com/sketch/ns">
    <!-- Generator: Sketch 3.3.3 (12081) - http://www.bohemiancoding.com/sketch -->
    <title>social-network2</title>
    <desc>Created with Sketch.</desc>
    <defs></defs>
    <g id="Page-1" stroke="none" stroke-width="1" fill="none" fill-rule="evenodd" sketch:type="MSPage">
        <g id="Desktop-HD" sketch:type="MSArtboardGroup" transform="translate(-784.000000, -29.000000)" fill="#FFFFFF">
            <g id="social-network2" sketch:type="MSLayerGroup" transform="translate(784.000000, 29.000000)">
                <g id="Group" sketch:type="MSShapeGroup">
                    <path d="M3.50861538,4.8295 C3.50861538,4.6735 3.53015385,4.33658333 3.57323077,3.82091667 C3.61953846,3.30416667 3.81338462,2.76358333 4.16123077,2.19591667 C4.50584615,1.63041667 5.06476923,1.12233333 5.84230769,0.67275 C6.61661538,0.225333333 7.73553846,0 9.19584615,0 L13.3096923,0 L13.3096923,4.50991667 L10.2975385,4.50991667 C9.99923077,4.50991667 9.72138462,4.62258333 9.47046154,4.84466667 C9.22169231,5.06675 9.09353846,5.278 9.09353846,5.47408333 L9.09353846,8.27991667 L13.3086154,8.27991667 C13.2644615,8.82916667 13.216,9.36325 13.16,9.87891667 L12.9930769,11.24175 C12.9263077,11.7021667 12.8584615,12.129 12.7916923,12.52225 L9.06338462,12.52225 L9.06338462,25.0260833 L3.50861538,25.0260833 L3.50861538,12.5211667 L0.799076923,12.5211667 L0.799076923,8.27991667 L3.50861538,8.27991667 L3.50861538,4.8295 L3.50861538,4.8295 Z" id="Shape"></path>
                </g>
            </g>
        </g>
    </g>
</svg>