<?xml version="1.0" encoding="UTF-8" standalone="no"?>
<svg width="18px" height="18px" viewBox="0 0 18 18" version="1.1" xmlns="http://www.w3.org/2000/svg" xmlns:xlink="http://www.w3.org/1999/xlink" xmlns:sketch="http://www.bohemiancoding.com/sketch/ns">
    <!-- Generator: Sketch 3.3.3 (12081) - http://www.bohemiancoding.com/sketch -->
    <title>google116</title>
    <desc>Created with Sketch.</desc>
    <defs></defs>
    <g id="Page-1" stroke="none" stroke-width="1" fill="none" fill-rule="evenodd" sketch:type="MSPage">
        <g id="Desktop-HD" sketch:type="MSArtboardGroup" transform="translate(-758.000000, -77.000000)" fill="#FFFFFF">
            <g id="google116" sketch:type="MSLayerGroup" transform="translate(758.000000, 77.000000)">
                <g id="Group" sketch:type="MSShapeGroup">
                    <path d="M11.6748,0 L7.29947368,0 C5.34978947,0 4.00016842,0.418639175 2.78545263,1.40140206 C1.83012632,2.20861856 1.26,3.3817732 1.26,4.53971134 C1.26,6.32375258 2.64884211,8.21969072 5.22246316,8.21969072 C5.46991579,8.21969072 5.74389474,8.19482474 5.98566316,8.17274227 L5.95004211,8.25754639 C5.84658947,8.50026804 5.74863158,8.72925773 5.74863158,9.08665979 C5.74863158,9.78253608 6.09138947,10.2117526 6.42277895,10.6264948 L6.46446316,10.6790103 L6.39037895,10.6840206 C5.32762105,10.7552784 3.34951579,10.8881443 1.90458947,11.7578969 C0.198,12.7516082 0.0653684211,14.1971753 0.0653684211,14.6163711 C0.0653684211,16.2842474 1.6524,17.9677113 5.19821053,17.9677113 C9.32115789,17.9677113 11.4785053,15.7399794 11.4785053,13.5395258 C11.4788842,11.9119175 10.5044211,11.1084124 9.47008421,10.2553608 L8.59755789,9.59065979 C8.32793684,9.37187629 7.99218947,9.09964948 7.99218947,8.59527835 C7.99218947,8.0994433 8.32793684,7.77210309 8.62427368,7.48336082 L8.65515789,7.45274227 C9.59741053,6.72587629 10.6652842,5.9017732 10.6652842,4.11921649 C10.6652842,2.32701031 9.52181053,1.40084536 8.97195789,0.955670103 L10.4238947,0.955670103 C10.4417053,0.955670103 10.4595158,0.950845361 10.4742947,0.941381443 L11.7250105,0.171278351 C11.7606316,0.149195876 11.7773053,0.106701031 11.7655579,0.0669896907 C11.7543789,0.0272783505 11.7168632,0 11.6748,0 L11.6748,0 Z M6.36896842,16.9858763 C3.85578947,16.9858763 2.1672,15.8362887 2.1672,14.1251753 C2.1672,13.0078763 2.85783158,12.1960206 4.21806316,11.7133608 C5.30734737,11.3542887 6.71343158,11.3364742 6.72745263,11.3364742 C6.96562105,11.3364742 7.08536842,11.3364742 7.2756,11.3598557 C9.03410526,12.5855258 9.87953684,13.2290722 9.87953684,14.4547423 C9.87934737,16.0161031 8.53408421,16.9858763 6.36896842,16.9858763 L6.36896842,16.9858763 Z M6.34528421,7.56296907 C4.23606316,7.56296907 3.36069474,4.84756701 3.36069474,3.39364948 C3.36069474,2.65435052 3.53235789,2.0868866 3.88553684,1.65841237 C4.26884211,1.18874227 4.92517895,0.885340206 5.55764211,0.885340206 C7.49425263,0.885340206 8.56515789,3.43465979 8.56515789,5.19661856 C8.56515789,5.47459794 8.56515789,6.3202268 7.96869474,6.90754639 C7.56757895,7.29964948 6.91522105,7.56296907 6.34528421,7.56296907 L6.34528421,7.56296907 Z" id="Shape"></path>
                    <path d="M17.8071158,8.39189691 L15.5016,8.39189691 L15.5016,6.14189691 C15.5016,6.09068041 15.4589684,6.0491134 15.4068632,6.0491134 L14.4151579,6.0491134 C14.3628632,6.0491134 14.3204211,6.09068041 14.3204211,6.14189691 L14.3204211,8.39189691 L12.0264632,8.39189691 C11.9741684,8.39189691 11.9317263,8.43346392 11.9317263,8.48468041 L11.9317263,9.46892784 C11.9317263,9.51995876 11.9741684,9.56171134 12.0264632,9.56171134 L14.3204211,9.56171134 L14.3204211,11.8261856 C14.3204211,11.8772165 14.3628632,11.9189691 14.4151579,11.9189691 L15.4068632,11.9189691 C15.4589684,11.9189691 15.5016,11.8772165 15.5016,11.8261856 L15.5016,9.56134021 L17.8071158,9.56134021 C17.8594105,9.56134021 17.9018526,9.51995876 17.9018526,9.4685567 L17.9018526,8.48468041 C17.9018526,8.43327835 17.8596,8.39189691 17.8071158,8.39189691 L17.8071158,8.39189691 Z" id="Shape"></path>
                </g>
            </g>
        </g>
    </g>
</svg>