<?xml version="1.0" encoding="UTF-8" standalone="no"?>
<svg width="28px" height="20px" viewBox="0 0 28 20" version="1.1" xmlns="http://www.w3.org/2000/svg" xmlns:xlink="http://www.w3.org/1999/xlink" xmlns:sketch="http://www.bohemiancoding.com/sketch/ns">
    <!-- Generator: Sketch 3.3.3 (12081) - http://www.bohemiancoding.com/sketch -->
    <title>twitter</title>
    <desc>Created with Sketch.</desc>
    <defs></defs>
    <g id="Page-1" stroke="none" stroke-width="1" fill="none" fill-rule="evenodd" sketch:type="MSPage">
        <g id="Desktop-HD" sketch:type="MSArtboardGroup" transform="translate(-689.000000, -23.000000)" fill="#FFFFFF">
            <g id="twitter" sketch:type="MSLayerGroup" transform="translate(689.000000, 23.000000)">
                <path d="M24.8275516,8.79236757 C26.4001376,8.66060153 27.4668427,7.93453295 27.8773543,6.94936194 C27.3100854,7.30327245 25.5491692,7.68911621 24.5766617,7.32165225 C24.5290095,7.08959063 24.4757589,6.86916515 24.4234848,6.67016074 C23.6824678,3.90671013 21.1453163,1.68037308 18.4868861,1.94932655 C18.7019718,1.86112991 18.9201171,1.7790158 19.1376114,1.70529822 C19.4302294,1.598854 21.1470739,1.31515701 20.8767196,0.699697856 C20.6488746,0.158352968 18.5512686,1.1088139 18.1563156,1.2330429 C18.67769,1.03390626 19.5399205,0.691367439 19.6322954,0.0829164124 C18.833536,0.194186985 18.0494238,0.577716747 17.4435514,1.1353919 C17.6622826,0.896256033 17.8282188,0.60482366 17.8634372,0.291176842 C15.7330215,1.67343106 14.4885322,4.46015395 13.4813923,7.16337433 C12.6905749,6.38500924 11.9896586,5.77206243 11.3608716,5.43170539 C9.59689573,4.47099672 7.48776728,3.46863597 4.1769193,2.22039568 C4.07530044,3.33290306 4.71866957,4.81214714 6.57254654,5.79586362 C6.17088839,5.74125311 5.43638126,5.86310199 4.8489318,6.00597526 C5.08816903,7.28046297 5.86948202,8.33049222 7.98466464,8.83825098 C7.01801603,8.90304312 6.51844963,9.12644375 6.0656891,9.60795508 C6.50595071,10.4943511 7.58027234,11.5375706 9.51285348,11.323426 C7.3642102,12.2639698 8.63675698,14.0057542 10.3851092,13.7459906 C7.40255326,16.8747234 2.70022343,16.6447775 0,14.0279025 C7.05010962,23.78454 22.3754188,19.7979726 24.6592718,10.4004687 C26.3703876,10.4152783 27.3762906,9.79849685 28,9.11851002 C27.0141473,9.28842408 25.5852338,9.11282418 24.8275516,8.79236757 L24.8275516,8.79236757 Z" id="Twitter__x28_alt_x29_" sketch:type="MSShapeGroup"></path>
            </g>
        </g>
    </g>
</svg>